<?xml version="1.0" encoding="utf-8"?>
<!-- Generator: Adobe Illustrator 26.3.1, SVG Export Plug-In . SVG Version: 6.00 Build 0)  -->
<svg version="1.1" id="Capa_1" xmlns="http://www.w3.org/2000/svg" xmlns:xlink="http://www.w3.org/1999/xlink" x="0px" y="0px"
	 viewBox="0 0 640 480" style="enable-background:new 0 0 640 480;" xml:space="preserve">
<style type="text/css">
	.st0{fill:#010201;}
	.st1{fill:#FFFFFF;}
</style>
<g>
	<path class="st0" d="M387.59,240.3c0-37.28-30.22-67.5-67.5-67.5s-67.5,30.22-67.5,67.5c0,33.69,24.68,61.62,56.95,66.68v-47.17
		h-17.14V240.3h17.14v-14.87c0-16.92,10.08-26.26,25.5-26.26c7.39,0,15.11,1.32,15.11,1.32v16.61h-8.51c-8.39,0-11,5.2-11,10.54
		v12.66h18.72l-2.99,19.51h-15.73v47.17C362.91,301.91,387.59,273.99,387.59,240.3z"/>
	<path class="st1" d="M346.37,259.81l2.99-19.51h-18.72v-12.66c0-5.34,2.61-10.54,11-10.54h8.51v-16.61c0,0-7.72-1.32-15.11-1.32
		c-15.42,0-25.5,9.34-25.5,26.26v14.87h-17.14v19.51h17.14v47.17c3.44,0.54,6.96,0.82,10.55,0.82s7.11-0.28,10.55-0.82v-47.17
		H346.37z"/>
</g>
</svg>
