<?xml version="1.0" encoding="utf-8"?>
<!-- Generator: Adobe Illustrator 26.3.1, SVG Export Plug-In . SVG Version: 6.00 Build 0)  -->
<svg version="1.1" id="Capa_1" xmlns="http://www.w3.org/2000/svg" xmlns:xlink="http://www.w3.org/1999/xlink" x="0px" y="0px"
	 viewBox="0 0 640 480" style="enable-background:new 0 0 640 480;" xml:space="preserve">
<style type="text/css">
	.st0{fill:#010201;}
	.st1{fill:#FFFFFF;}
</style>
<g>
	<circle class="st0" cx="320.09" cy="240.3" r="67.5"/>
	<g>
		<g>
			<path class="st1" d="M320.09,205.45c11.35,0,12.69,0.04,17.17,0.25c4.14,0.19,6.39,0.88,7.89,1.46c1.98,0.77,3.4,1.69,4.89,3.18
				c1.49,1.49,2.41,2.9,3.18,4.89c0.58,1.5,1.27,3.75,1.46,7.89c0.2,4.48,0.25,5.83,0.25,17.17s-0.04,12.69-0.25,17.17
				c-0.19,4.14-0.88,6.39-1.46,7.89c-0.77,1.98-1.69,3.4-3.18,4.89c-1.49,1.49-2.9,2.41-4.89,3.18c-1.5,0.58-3.75,1.27-7.89,1.46
				c-4.48,0.2-5.82,0.25-17.17,0.25c-11.35,0-12.69-0.04-17.17-0.25c-4.14-0.19-6.39-0.88-7.89-1.46c-1.98-0.77-3.4-1.69-4.89-3.18
				c-1.49-1.49-2.41-2.9-3.18-4.89c-0.58-1.5-1.27-3.75-1.46-7.89c-0.2-4.48-0.25-5.83-0.25-17.17s0.04-12.69,0.25-17.17
				c0.19-4.14,0.88-6.39,1.46-7.89c0.77-1.98,1.69-3.4,3.18-4.89c1.49-1.49,2.9-2.41,4.89-3.18c1.5-0.58,3.75-1.27,7.89-1.46
				C307.4,205.5,308.75,205.45,320.09,205.45 M320.09,197.8c-11.54,0-12.99,0.05-17.52,0.26c-4.52,0.21-7.61,0.92-10.32,1.98
				c-2.79,1.09-5.16,2.54-7.53,4.9c-2.36,2.36-3.82,4.73-4.9,7.53c-1.05,2.7-1.77,5.79-1.98,10.32c-0.21,4.53-0.26,5.98-0.26,17.52
				c0,11.54,0.05,12.99,0.26,17.52c0.21,4.52,0.92,7.61,1.98,10.32c1.09,2.79,2.54,5.16,4.9,7.53c2.36,2.36,4.73,3.82,7.53,4.9
				c2.7,1.05,5.79,1.77,10.32,1.98c4.53,0.21,5.98,0.26,17.52,0.26c11.54,0,12.99-0.05,17.52-0.26c4.52-0.21,7.61-0.92,10.32-1.98
				c2.79-1.09,5.16-2.54,7.53-4.9c2.36-2.36,3.82-4.73,4.9-7.53c1.05-2.7,1.77-5.79,1.98-10.32c0.21-4.53,0.26-5.98,0.26-17.52
				s-0.05-12.99-0.26-17.52c-0.21-4.52-0.92-7.61-1.98-10.32c-1.09-2.79-2.54-5.16-4.9-7.53c-2.36-2.36-4.73-3.82-7.53-4.9
				c-2.7-1.05-5.79-1.77-10.32-1.98C333.08,197.85,331.64,197.8,320.09,197.8L320.09,197.8z"/>
			<path class="st1" d="M320.09,218.47c-12.05,0-21.82,9.77-21.82,21.82s9.77,21.82,21.82,21.82c12.05,0,21.82-9.77,21.82-21.82
				S332.15,218.47,320.09,218.47z M320.09,254.46c-7.82,0-14.17-6.34-14.17-14.17s6.34-14.17,14.17-14.17s14.17,6.34,14.17,14.17
				S327.92,254.46,320.09,254.46z"/>
			<circle class="st1" cx="342.78" cy="217.61" r="5.1"/>
		</g>
	</g>
</g>
</svg>
