<?xml version="1.0" encoding="utf-8"?>
<!-- Generator: Adobe Illustrator 26.3.1, SVG Export Plug-In . SVG Version: 6.00 Build 0)  -->
<svg version="1.1" id="Capa_1" xmlns="http://www.w3.org/2000/svg" xmlns:xlink="http://www.w3.org/1999/xlink" x="0px" y="0px"
	 viewBox="0 0 640 480" style="enable-background:new 0 0 640 480;" xml:space="preserve">
<style type="text/css">
	.st0{fill-rule:evenodd;clip-rule:evenodd;fill:#010201;}
	.st1{fill:#FFFFFF;}
</style>
<g>
	<circle class="st0" cx="319" cy="239.5" r="67.5"/>
	<g>
		<g>
			<path class="st1" d="M305.36,278.38c32.97,0,51-27.31,51-51c0-0.78-0.02-1.55-0.05-2.32c3.5-2.53,6.54-5.69,8.94-9.28
				c-3.21,1.43-6.67,2.39-10.29,2.82c3.7-2.22,6.54-5.73,7.88-9.91c-3.46,2.05-7.3,3.55-11.38,4.35c-3.27-3.48-7.93-5.66-13.08-5.66
				c-9.9,0-17.93,8.03-17.93,17.92c0,1.41,0.16,2.77,0.46,4.09c-14.9-0.75-28.11-7.88-36.94-18.73c-1.54,2.65-2.43,5.73-2.43,9.01
				c0,6.22,3.16,11.71,7.98,14.92c-2.94-0.09-5.7-0.9-8.12-2.24c0,0.07,0,0.15,0,0.23c0,8.68,6.18,15.93,14.38,17.57
				c-1.51,0.41-3.09,0.63-4.72,0.63c-1.15,0-2.28-0.11-3.37-0.32c2.28,7.12,8.9,12.3,16.74,12.45c-6.14,4.81-13.86,7.67-22.26,7.67
				c-1.45,0-2.87-0.08-4.28-0.25C285.82,275.41,295.24,278.38,305.36,278.38"/>
		</g>
	</g>
</g>
</svg>
