<?xml version="1.0" encoding="utf-8"?>
<!-- Generator: Adobe Illustrator 26.3.1, SVG Export Plug-In . SVG Version: 6.00 Build 0)  -->
<svg version="1.1" id="Capa_1" xmlns="http://www.w3.org/2000/svg" xmlns:xlink="http://www.w3.org/1999/xlink" x="0px" y="0px"
	 viewBox="0 0 640 480" style="enable-background:new 0 0 640 480;" xml:space="preserve">
<style type="text/css">
	.st0{fill:#010201;}
	.st1{fill-rule:evenodd;clip-rule:evenodd;fill:#FFFFFF;}
</style>
<g>
	<circle class="st0" cx="320.09" cy="240.3" r="67.5"/>
	<g>
		<g id="WA_Logo_10_">
			<g>
				<path class="st1" d="M352.56,208.66c-8.08-8.09-18.84-12.55-30.29-12.55c-23.6,0-42.81,19.2-42.82,42.8
					c0,7.54,1.97,14.91,5.72,21.4l-6.07,22.18l22.7-5.95c6.25,3.41,13.3,5.21,20.46,5.21h0.02c0,0,0,0,0,0
					c23.6,0,42.81-19.2,42.82-42.81C365.1,227.5,360.65,216.75,352.56,208.66z M322.27,274.52h-0.01c-6.39,0-12.65-1.72-18.11-4.96
					l-1.3-0.77l-13.47,3.53l3.6-13.13l-0.85-1.35c-3.56-5.66-5.44-12.21-5.44-18.93c0.01-19.62,15.97-35.58,35.61-35.58
					c9.51,0,18.44,3.71,25.16,10.43c6.72,6.72,10.42,15.66,10.41,25.17C357.86,258.56,341.89,274.52,322.27,274.52z M341.8,247.87
					c-1.07-0.54-6.33-3.12-7.31-3.48c-0.98-0.36-1.69-0.54-2.41,0.54c-0.71,1.07-2.76,3.48-3.39,4.19c-0.62,0.71-1.25,0.8-2.32,0.27
					c-1.07-0.54-4.52-1.66-8.6-5.31c-3.18-2.84-5.33-6.34-5.95-7.41s-0.07-1.65,0.47-2.18c0.48-0.48,1.07-1.25,1.6-1.87
					c0.53-0.62,0.71-1.07,1.07-1.78c0.36-0.71,0.18-1.34-0.09-1.87s-2.41-5.8-3.3-7.94c-0.87-2.09-1.75-1.8-2.41-1.84
					c-0.62-0.03-1.34-0.04-2.05-0.04c-0.71,0-1.87,0.27-2.85,1.34c-0.98,1.07-3.74,3.66-3.74,8.92c0,5.26,3.83,10.35,4.37,11.06
					c0.54,0.71,7.54,11.52,18.28,16.15c2.55,1.1,4.55,1.76,6.1,2.25c2.56,0.81,4.9,0.7,6.74,0.42c2.06-0.31,6.33-2.59,7.22-5.09
					c0.89-2.5,0.89-4.64,0.62-5.09C343.58,248.67,342.87,248.41,341.8,247.87z"/>
			</g>
		</g>
	</g>
</g>
</svg>
