<?xml version="1.0" encoding="utf-8"?>
<!-- Generator: Adobe Illustrator 26.3.1, SVG Export Plug-In . SVG Version: 6.00 Build 0)  -->
<svg version="1.1" id="Capa_1" xmlns="http://www.w3.org/2000/svg" xmlns:xlink="http://www.w3.org/1999/xlink" x="0px" y="0px"
	 viewBox="0 0 640 480" style="enable-background:new 0 0 640 480;" xml:space="preserve">
<style type="text/css">
	.st0{fill:#010201;}
	.st1{fill:#FFFFFF;}
</style>
<g>
	<circle class="st0" cx="319" cy="239.5" r="67.5"/>
	<path class="st1" d="M362.12,217.84c-1.04-3.87-4.08-6.92-7.96-7.96C347.14,208,319,208,319,208s-28.14,0-35.16,1.88
		c-3.87,1.04-6.92,4.08-7.96,7.96C274,224.86,274,239.5,274,239.5s0,14.64,1.88,21.66c1.04,3.87,4.08,6.92,7.96,7.96
		C290.86,271,319,271,319,271s28.14,0,35.16-1.88c3.87-1.04,6.92-4.08,7.96-7.96C364,254.14,364,239.5,364,239.5
		S364,224.86,362.12,217.84z M310,253v-27l23.38,13.5L310,253z"/>
</g>
</svg>
